<svg width="133" height="44" viewBox="0 0 133 44" fill="none" xmlns="http://www.w3.org/2000/svg">
<path d="M56.2638 15.0315C57.7314 15.0315 59.0188 15.3183 60.1262 15.892C61.2468 16.4657 62.1074 17.2862 62.7077 18.3535C63.3214 19.4075 63.6283 20.6349 63.6283 22.0358C63.6283 23.4366 63.3214 24.664 62.7077 25.718C62.1074 26.7586 61.2468 27.5658 60.1262 28.1395C59.0188 28.7132 57.7314 29 56.2638 29H51.3808V15.0315H56.2638ZM56.1638 26.6186C57.6313 26.6186 58.7653 26.2183 59.5658 25.4178C60.3663 24.6173 60.7666 23.49 60.7666 22.0358C60.7666 20.5815 60.3663 19.4475 59.5658 18.6337C58.7653 17.8065 57.6313 17.3929 56.1638 17.3929H54.1825V26.6186H56.1638ZM67.1464 16.5924C66.6527 16.5924 66.2392 16.439 65.9056 16.1322C65.5854 15.812 65.4253 15.4184 65.4253 14.9515C65.4253 14.4845 65.5854 14.0976 65.9056 13.7907C66.2392 13.4705 66.6527 13.3105 67.1464 13.3105C67.64 13.3105 68.0469 13.4705 68.3671 13.7907C68.7007 14.0976 68.8674 14.4845 68.8674 14.9515C68.8674 15.4184 68.7007 15.812 68.3671 16.1322C68.0469 16.439 67.64 16.5924 67.1464 16.5924ZM68.5272 17.9133V29H65.7255V17.9133H68.5272ZM75.9181 26.4184L78.7198 17.9133H81.7016L77.5991 29H74.1971L70.1146 17.9133H73.1164L75.9181 26.4184ZM93.5815 23.2165C93.5815 23.6167 93.5548 23.9769 93.5015 24.2971H85.3965C85.4632 25.0976 85.7434 25.7247 86.2371 26.1783C86.7307 26.6319 87.3377 26.8587 88.0582 26.8587C89.0988 26.8587 89.8392 26.4118 90.2795 25.5179H93.3014C92.9812 26.5852 92.3674 27.4657 91.4602 28.1595C90.553 28.8399 89.439 29.1801 88.1182 29.1801C87.0509 29.1801 86.0903 28.9466 85.2364 28.4797C84.3959 27.9994 83.7355 27.3256 83.2552 26.4585C82.7883 25.5913 82.5548 24.5906 82.5548 23.4566C82.5548 22.3093 82.7883 21.302 83.2552 20.4348C83.7222 19.5676 84.3759 18.9005 85.2164 18.4336C86.0569 17.9666 87.0242 17.7331 88.1182 17.7331C89.1722 17.7331 90.1127 17.9599 90.9399 18.4136C91.7804 18.8672 92.4275 19.5142 92.8811 20.3547C93.348 21.1819 93.5815 22.1358 93.5815 23.2165ZM90.6798 22.416C90.6664 21.6956 90.4063 21.1219 89.8993 20.6949C89.3923 20.2547 88.7719 20.0345 88.0381 20.0345C87.3444 20.0345 86.7574 20.248 86.2771 20.6749C85.8101 21.0885 85.5233 21.6689 85.4166 22.416H90.6798ZM100.449 29.1401C99.4755 29.1401 98.595 28.9733 97.8078 28.6398C97.034 28.3062 96.4203 27.826 95.9667 27.1989C95.5131 26.5719 95.2796 25.8314 95.2663 24.9776H98.2681C98.3081 25.5512 98.5083 26.0048 98.8685 26.3384C99.242 26.6719 99.749 26.8387 100.389 26.8387C101.043 26.8387 101.557 26.6853 101.93 26.3784C102.304 26.0582 102.491 25.6446 102.491 25.1376C102.491 24.7241 102.364 24.3839 102.11 24.117C101.857 23.8502 101.537 23.6434 101.15 23.4967C100.776 23.3366 100.256 23.1631 99.5889 22.9763C98.6817 22.7095 97.9413 22.4493 97.3676 22.1959C96.8072 21.929 96.3203 21.5355 95.9067 21.0151C95.5064 20.4815 95.3063 19.7744 95.3063 18.8938C95.3063 18.0667 95.5131 17.3462 95.9267 16.7325C96.3403 16.1188 96.9206 15.6519 97.6678 15.3317C98.4149 14.9981 99.2687 14.8314 100.229 14.8314C101.67 14.8314 102.838 15.1849 103.731 15.892C104.639 16.5858 105.139 17.5597 105.232 18.8138H102.15C102.124 18.3335 101.917 17.9399 101.53 17.6331C101.157 17.3129 100.656 17.1528 100.029 17.1528C99.4822 17.1528 99.0419 17.2929 98.7084 17.573C98.3882 17.8532 98.2281 18.2601 98.2281 18.7938C98.2281 19.1673 98.3482 19.4809 98.5883 19.7344C98.8418 19.9745 99.1487 20.1746 99.5089 20.3347C99.8824 20.4815 100.403 20.6549 101.07 20.855C101.977 21.1219 102.717 21.3887 103.291 21.6555C103.865 21.9224 104.358 22.3226 104.772 22.8563C105.186 23.3899 105.392 24.0903 105.392 24.9575C105.392 25.7047 105.199 26.3984 104.812 27.0388C104.425 27.6792 103.858 28.1928 103.111 28.5797C102.364 28.9533 101.477 29.1401 100.449 29.1401ZM118.128 23.2165C118.128 23.6167 118.101 23.9769 118.048 24.2971H109.943C110.009 25.0976 110.29 25.7247 110.783 26.1783C111.277 26.6319 111.884 26.8587 112.604 26.8587C113.645 26.8587 114.385 26.4118 114.826 25.5179H117.848C117.527 26.5852 116.914 27.4657 116.006 28.1595C115.099 28.8399 113.985 29.1801 112.664 29.1801C111.597 29.1801 110.636 28.9466 109.783 28.4797C108.942 27.9994 108.282 27.3256 107.801 26.4585C107.334 25.5913 107.101 24.5906 107.101 23.4566C107.101 22.3093 107.334 21.302 107.801 20.4348C108.268 19.5676 108.922 18.9005 109.763 18.4336C110.603 17.9666 111.57 17.7331 112.664 17.7331C113.718 17.7331 114.659 17.9599 115.486 18.4136C116.327 18.8672 116.974 19.5142 117.427 20.3547C117.894 21.1819 118.128 22.1358 118.128 23.2165ZM115.226 22.416C115.213 21.6956 114.952 21.1219 114.445 20.6949C113.938 20.2547 113.318 20.0345 112.584 20.0345C111.891 20.0345 111.304 20.248 110.823 20.6749C110.356 21.0885 110.069 21.6689 109.963 22.416H115.226ZM119.452 23.4166C119.452 22.2959 119.672 21.302 120.113 20.4348C120.566 19.5676 121.173 18.9005 121.934 18.4336C122.708 17.9666 123.568 17.7331 124.515 17.7331C125.343 17.7331 126.063 17.8999 126.677 18.2334C127.304 18.567 127.804 18.9872 128.178 19.4942V17.9133H130.999V29H128.178V27.379C127.817 27.8993 127.317 28.3329 126.677 28.6798C126.05 29.0133 125.323 29.1801 124.495 29.1801C123.561 29.1801 122.708 28.94 121.934 28.4597C121.173 27.9794 120.566 27.3056 120.113 26.4384C119.672 25.5579 119.452 24.5506 119.452 23.4166ZM128.178 23.4566C128.178 22.7762 128.044 22.1959 127.777 21.7156C127.511 21.2219 127.15 20.8484 126.697 20.5949C126.243 20.3281 125.756 20.1946 125.236 20.1946C124.715 20.1946 124.235 20.3214 123.795 20.5749C123.355 20.8284 122.994 21.2019 122.714 21.6956C122.447 22.1758 122.314 22.7495 122.314 23.4166C122.314 24.0837 122.447 24.6707 122.714 25.1777C122.994 25.6713 123.355 26.0515 123.795 26.3184C124.249 26.5852 124.729 26.7186 125.236 26.7186C125.756 26.7186 126.243 26.5919 126.697 26.3384C127.15 26.0716 127.511 25.698 127.777 25.2177C128.044 24.7241 128.178 24.137 128.178 23.4566Z" fill="white"/>
<path d="M38.4914 29.6325C36.8975 29.6325 36.191 29.0166 35.1948 28.1472C34.0899 27.2053 32.7133 26.0098 30.123 26.0098C27.5147 26.0098 26.1562 27.2053 25.0512 28.1472C24.055 29.0166 23.3305 29.6325 21.7365 29.6325C20.1606 29.6325 19.4361 29.0166 18.4398 28.1472C17.3349 27.2053 15.9583 26.0098 13.3681 26.0098C10.7598 26.0098 9.38314 27.2053 8.27822 28.1472C7.28198 29.0166 6.57554 29.6325 4.98156 29.6325C4.2389 29.6325 3.62305 30.2483 3.62305 30.991C3.62305 31.7517 4.2389 32.3495 4.98156 32.3495C7.58989 32.3495 8.94838 31.1721 10.0533 30.2121C11.0495 29.3426 11.7741 28.7268 13.3681 28.7268C14.9621 28.7268 15.6685 29.3426 16.6648 30.2121C17.7697 31.1721 19.1463 32.3495 21.7365 32.3495C24.3448 32.3495 25.7215 31.1721 26.8264 30.2121C27.8226 29.3426 28.5291 28.7268 30.123 28.7268C31.6989 28.7268 32.4235 29.3426 33.4197 30.2121C34.5246 31.1721 35.9012 32.3495 38.4914 32.3495C39.2341 32.3495 39.85 31.7517 39.85 30.991C39.85 30.2483 39.2341 29.6325 38.4914 29.6325Z" fill="white"/>
<path d="M38.4914 22.1715C36.8975 22.1715 36.191 21.5375 35.1948 20.6862C34.0899 19.7262 32.7133 18.5488 30.123 18.5488C27.5147 18.5488 26.1562 19.7262 25.0512 20.6862C24.055 21.5375 23.3305 22.1715 21.7365 22.1715C20.1606 22.1715 19.4361 21.5375 18.4398 20.6862C17.3349 19.7262 15.9583 18.5488 13.3681 18.5488C10.7598 18.5488 9.38314 19.7262 8.27822 20.6862C7.28198 21.5375 6.57554 22.1715 4.98156 22.1715C4.2389 22.1715 3.62305 22.7693 3.62305 23.53C3.62305 24.2727 4.2389 24.8885 4.98156 24.8885C7.58989 24.8885 8.94838 23.693 10.0533 22.733C11.0495 21.8817 11.7741 21.2658 13.3681 21.2658C14.9621 21.2658 15.6685 21.8817 16.6648 22.733C17.7697 23.693 19.1463 24.8885 21.7365 24.8885C24.3448 24.8885 25.7215 23.693 26.8264 22.733C27.8226 21.8817 28.5291 21.2658 30.123 21.2658C31.6989 21.2658 32.4235 21.8817 33.4197 22.733C34.5246 23.693 35.9012 24.8885 38.4914 24.8885C39.2341 24.8885 39.85 24.2727 39.85 23.53C39.85 22.7693 39.2341 22.1715 38.4914 22.1715Z" fill="white"/>
<path d="M4.98156 17.4608C7.58989 17.4608 8.94838 16.2653 10.0533 15.3234C11.0495 14.454 11.7741 13.8381 13.3681 13.8381C14.9621 13.8381 15.6685 14.454 16.6648 15.3234C17.7697 16.2653 19.1463 17.4608 21.7365 17.4608C24.3448 17.4608 25.7215 16.2653 26.8264 15.3234C27.8226 14.454 28.5291 13.8381 30.123 13.8381C31.6989 13.8381 32.4235 14.454 33.4197 15.3234C34.5246 16.2653 35.9012 17.4608 38.4914 17.4608C39.2341 17.4608 39.8499 16.8449 39.8499 16.1023C39.8499 15.3415 39.2341 14.7438 38.4914 14.7438C36.8975 14.7438 36.191 14.1279 35.1948 13.2585C34.0899 12.2985 32.7133 11.1211 30.123 11.1211C27.5147 11.1211 26.1562 12.2985 25.0512 13.2585C24.055 14.1279 23.3305 14.7438 21.7365 14.7438C20.1606 14.7438 19.4361 14.1279 18.4398 13.2585C17.3349 12.2985 15.9583 11.1211 13.3681 11.1211C10.7598 11.1211 9.38314 12.2985 8.27822 13.2585C7.28198 14.1279 6.57554 14.7438 4.98156 14.7438C4.2389 14.7438 3.62305 15.3415 3.62305 16.1023C3.62305 16.8449 4.2389 17.4608 4.98156 17.4608Z" fill="white"/>
</svg>
