<svg width="94" height="97" viewBox="0 0 94 97" fill="none" xmlns="http://www.w3.org/2000/svg">
<path d="M11.1285 30.7908C23.0646 21.8516 36.9615 16.3656 51.6893 20.3608C64.9827 23.9671 73.3521 35.2969 64.3887 49.3083C60.1456 55.9411 51.1115 60.5837 44.01 56.8055C36.0983 52.5962 42.3342 41.9722 47.399 38.9084C59.2285 31.7523 75.8791 35.0785 84.0688 48.9778C93.7673 65.4379 77.3647 73.6308 77.3535 73.4972" stroke="black" stroke-width="2.40297" stroke-miterlimit="1.5" stroke-linecap="round" stroke-linejoin="round"/>
<path d="M13.7035 13.0723C14.1368 14.7966 13.8866 16.5227 13.7163 18.2605C13.1576 23.9669 10.9206 29.8913 6.9068 33.6339C12.1884 31.3181 19.7657 30.3095 24.5629 34.3745" stroke="black" stroke-width="2.40297" stroke-miterlimit="1.5" stroke-linecap="round" stroke-linejoin="round"/>
</svg>
